# xmcd
#
# Track frame offsets: 
#        150
#        18562
#        43107
#        55572
#        69247
#        89447
#        107092
#        123940
#        143625
#        158630
#        186595
#        206450
#        218280
#        228960
#        247765
#
# Disc length: 3897 seconds
#
# Revision: 1
# Processed by: cddbd v1.5.2PL0 Copyright (c) Steve Scherf et al.
# Submitted via: ExactAudioCopy v0.99pb5
#
DISCID=be0f370f
DTITLE=היהודים - מציאות נפרדת
DYEAR=1995
DGENRE=Hard Rock
TTITLE0=מחפש תשובה
TTITLE1=קח אותי
TTITLE2=אלה
TTITLE3=שחק אותה
TTITLE4=עוד ארון אחד
TTITLE5=לא קל
TTITLE6=פיוטה
TTITLE7=הימים שלנו
TTITLE8=ג'קי
TTITLE9=הזמן שלך
TTITLE10=הבלוז
TTITLE11=כל הסיפור
TTITLE12=אלוהים
TTITLE13=סוף העולם
TTITLE14=מלחמה שקטה
EXTD=
EXTT0=
EXTT1=
EXTT2=
EXTT3=
EXTT4=
EXTT5=
EXTT6=
EXTT7=
EXTT8=
EXTT9=
EXTT10=
EXTT11=
EXTT12=
EXTT13=
EXTT14=
PLAYORDER=
